# xmcd
#
# Track frame offsets:
#	150
#	16511
#	41971
#	59964
#	85774
#	108308
#	134338
#	160974
#	187718
#	207215
#	232511
#	255992
#
# Disc length: 3647 seconds
#
# Revision: 2
# Processed by: cddbd v1.5.2PL0 Copyright (c) Steve Scherf et al.
# Submitted via: EZCDAudioConverter 8.0.2.1
#
DISCID=900e3d0c
DTITLE=Lý Diệu Linh - Vol 02. Tơ Hồng Se Duyên
DYEAR=2007
DGENRE=Contemporary Pop
TTITLE0=Lý Diệu Linh, Đoàn Minh - Tơ Hồng Se Duyên
TTITLE1=Lý Diệu Linh - Tình buồn em ra đi
TTITLE2=Lý Diệu Linh, Đào Phi Dương - Mai mình xa nhau
TTITLE3=Lý Diệu Linh - Bông so đũa trắng
TTITLE4=Lý Diệu Linh, Trường Sơn - Đẹp tình! Đẹp quê
TTITLE5=Lý Diệu Linh - Buồn con chim sáo
TTITLE6=Lý Diệu Linh, Đoàn Minh - Dòng thư mực tím
TTITLE7=Lý Diệu Linh - Đơn côi chiếc bóng
TTITLE8=Lý Diệu Linh, Khang Lê - Đêm cuối tình yêu
TTITLE9=Lý Diệu Linh - Con lấy chồng xa
TTITLE10=Lý Diệu Linh, Trường Sơn - Thuyền về bến xưa
TTITLE11=Lý Diệu Linh, Đoàn Minh - Về với quê anh
EXTD=
EXTT0=
EXTT1=
EXTT2=
EXTT3=
EXTT4=
EXTT5=
EXTT6=
EXTT7=
EXTT8=
EXTT9=
EXTT10=
EXTT11=
PLAYORDER=
